<?xml version="1.0" encoding="UTF-8"?>
<!-- Generator: Adobe Illustrator 26.5.0, SVG Export Plug-In . SVG Version: 6.00 Build 0)  -->
<svg xmlns="http://www.w3.org/2000/svg" xmlns:xlink="http://www.w3.org/1999/xlink" version="1.1" id="Layer_1" x="0px" y="0px" viewBox="0 0 956.6 956.6" style="enable-background:new 0 0 956.6 956.6;" xml:space="preserve">
<style type="text/css">
	.st0{fill:#37A348;}
	.st1{fill:#E4087E;}
	.st2{fill:#0076BB;}
	.st3{fill:#F7941D;}
	.st4{fill:#232222;stroke:#232222;stroke-width:4;stroke-miterlimit:10;}
	.st5{fill:#012B33;}
	.st6{fill:#232222;stroke:#232222;stroke-miterlimit:10;}
</style>
<circle class="st0" cx="-96.1" cy="-3137.2" r="21.7"></circle>
<circle class="st1" cx="50.2" cy="-3137.2" r="21.7"></circle>
<circle class="st2" cx="294.1" cy="-3137.2" r="21.7"></circle>
<circle class="st3" cx="440.4" cy="-3137.2" r="21.7"></circle>
<g>
	<g>
		<g>
			<g>
				<path class="st4" d="M128,530.1v-7l4.2-0.6l6.1,42.8l-12.9,3l-0.7-4.8l7.8-3.6L130,539l-23.7,3.4l2.3,14l7.2,0.2l0.7,4.6      L97.1,564l-0.7-4.6l7.1-2.2l-1.8-14.1l-25,3.5l4.2,23.6l11.2,2.9l-0.8,5.2l-15-0.4l-6.7-46.7l4.1-0.6l1.8,6.9L128,530.1z"></path>
				<path class="st4" d="M154.3,634.8l-2.2-6.5l3.8-1.9l7.2,14.1l-24,44.1l-5.9,8.3l40.3-20.6l-2.5-7l3.8-1.9l9.1,17.9l-3.8,1.9      l-4-5.6l-51.5,26.3l-3.1-6l24.6-45l7-10.9l-43.3,22.1l2.9,7.6l-3.7,1.9l-9.4-18.4l3.7-1.9l3.9,5.6L154.3,634.8z"></path>
				<path class="st4" d="M292.1,786.5l8,4.9L287,852.2l4,3.5l-2.2,3.5l-19.1-11.7l2.2-3.5l6.5,3l3.2-12.8l-21.2-13l-10,8.6l5.8,4.5      l-2.2,3.5l-17.2-10.5l2.2-3.5l4.9,2L292.1,786.5z M289.6,800.9l2.1-7.5l-5.7,5.5l-21.6,18.7l18.5,11.3L289.6,800.9z"></path>
				<path class="st4" d="M380.2,833.2l-8.9-2.8l0.8-4.2l22.1,4.4l4.4,39.8l0.7,11.1l4.6-10.1l19-35.3l21.9,4.3l-0.8,4.2l-9.4-0.8      l-3.4,53.1l7.1,2.3l-0.8,4.1l-24-4.7l0.8-4.1l7.8,0.6l3.6-38.2l1.4-16.4l-5.8,11.3l-22.4,40.9l-5.4-1.1l-5.7-42.6l-1.8-16.7      l-4.7,15.9L370.7,885l8.1,2.4l-0.8,4.1l-21.8-4.2l0.8-4.1l7.3,0.5L380.2,833.2z"></path>
				<path class="st4" d="M512.8,843.4l-7,0.1l-0.7-4.2l42.7-6.7l3.2,12.8l-4.8,0.8l-3.7-7.8l-20.9,2.8l3.7,23.7l14-2.4l0.1-7.2      l4.6-0.7l3,19.3l-4.6,0.7l-2.3-7l-14.1,1.9l3.9,25l23.5-4.5l2.8-11.3l5.2,0.7l-0.1,15l-46.6,7.3l-0.6-4.1l6.8-1.9L512.8,843.4z"></path>
				<path class="st4" d="M626.7,803.9l8.3-4.3l45.2,42.8l5.1-1.7l1.9,3.7l-20,10.2l-1.9-3.7l5.9-4l-9.3-9.4l-22.1,11.3l2.2,13      l6.9-2.6l1.9,3.7l-17.9,9.2l-1.9-3.7l4.3-3.2L626.7,803.9z M637.7,813.6l-5.3-5.7l1.7,7.7l4.8,28.2l19.3-9.9L637.7,813.6z"></path>
				<path class="st4" d="M710.5,753.8l-5.6,4.2l-3-3l17.2-17.3l3,3l-5.2,6.7l37.5,37.3l14.9-16.1l-6.6-13.6l4.2-3.1l11.6,15.7      l-32,32.1l-3-2.9l4.4-5.6L710.5,753.8z"></path>
				<path class="st4" d="M828.3,690.9c-4.4,2.7-9.3,3.9-14.7,3.7s-11-1.8-16.8-4.8c-5.6-2.9-10-6.6-13.2-11.2      c-3.1-4.6-4.8-9.6-5.1-14.9c-0.3-5.4,0.9-10.6,3.5-15.8c2-3.9,5-8.2,9-13.1l1.7-2.3l13.2,7.7l-2.6,5.1l-10.6-3      c-1,0.4-2.1,1.4-3.4,2.9c-1.3,1.5-2.6,3.5-3.9,6.1c-1.7,3.2-2.2,6.6-1.7,10c0.5,3.5,2.2,6.8,5.1,10.1s6.8,6.2,11.8,8.8      c4.7,2.4,9.4,4,13.9,4.7s8.6,0.4,12.2-1c3.6-1.4,6.4-4,8.3-7.8c1.4-2.7,2.2-4.8,2.5-6.5s0.3-3.2-0.1-4.7l-5.8-7l3-4.5l9.8,7.3      c-0.5,1.1-0.9,2.8-1.3,5.2c-0.4,2.1-0.8,4.1-1.4,5.9c-0.5,1.9-1.5,4-2.7,6.6C836.3,684.1,832.7,688.2,828.3,690.9z"></path>
				<path class="st4" d="M870.8,573.9c-3.2,3.5-7.4,6-12.5,7.2c-5.1,1.3-10.8,1.4-17.1,0.5c-6.4-1-11.9-3.1-16.4-6.2      s-7.8-7.1-9.8-11.8s-2.6-9.7-1.8-15c1.3-8.7,5.1-15,11.3-18.8s14.2-4.9,24-3.4c6.6,1,12.1,3.1,16.7,6.4c4.6,3.3,7.9,7.3,9.9,12      c2.1,4.8,2.7,9.8,1.8,15.2C876.1,565.7,874.1,570.3,870.8,573.9z M822.6,563.7c4.3,3.9,10.9,6.5,20.1,7.9      c8.4,1.3,15.3,0.8,20.7-1.5s8.5-6.2,9.3-11.7c0.8-5.4-1-10-5.4-13.9s-11.1-6.6-20.3-8c-8.5-1.3-15.3-0.8-20.5,1.5      s-8.2,6.2-9.1,11.8C816.7,555.2,818.4,559.8,822.6,563.7z"></path>
			</g>
		</g>
		<g>
			<g>
				<g>
					<path class="st2" d="M293.6,360.3c0,0,42.8-2.7,22.5,123.8l-5.4,18.4C310.7,502.5,317.8,384.8,293.6,360.3z"></path>
				</g>
				<g>
					<path class="st3" d="M653.4,360.3c0,0-42.8-2.7-22.5,123.8l5.4,18.4C636.3,502.5,629.2,384.8,653.4,360.3z"></path>
				</g>
			</g>
			<g>
				<g>
					<path class="st1" d="M377.4,228.1c0,0,81.2-8.3,46.5,175.8L412.7,430C412.7,429.9,427.4,262.9,377.4,228.1z"></path>
				</g>
				<g>
					<path class="st0" d="M569.6,228.1c0,0-81.2-8.3-46.5,175.8l11.2,26.1C534.3,429.9,519.6,262.9,569.6,228.1z"></path>
				</g>
			</g>
			<g>
				<path class="st5" d="M224.2,647.4c1.1-1,27.8-25.4,54.8-62.4c16-21.8,28.7-43.5,37.9-64.4c1.7-3.9,3.3-7.8,4.8-11.7l1.3-3.3      l2.9,1.5c6.4,3.3,13.3,5,20.4,5.2c30.7,0.9,56.5-19.3,74.5-58.3c0.3-0.7,0.7-1.4,1-2.2l1.6-3.7l2.9,2.4      c13.8,11.2,29.4,16.8,46.1,16.8c0.3,0,0.7,0,1,0h0.1c0.4,0,0.7,0,1.1,0c16.7,0,32.2-5.7,46.1-16.8l2.9-2.4l1.6,3.7      c0.3,0.7,0.6,1.4,1,2.2c17.6,38.2,42.7,58.3,72.6,58.3c0.6,0,1.2,0,1.9,0c7.1-0.2,14-1.9,20.5-5.2l2.9-1.5l1.3,3.3      c1.5,3.8,3.1,7.8,4.8,11.7c9.2,20.9,21.9,42.5,37.9,64.4c27,37,53.7,61.4,54.8,62.4c1.3,1.2,2.9,1.8,4.6,1.8      c2.3,0,4.4-1.2,5.8-3.2c1.2-1.8,1.8-4,1.6-6.3s-1.2-4.3-2.8-5.7c-0.8-0.7-68.7-63.2-94.7-136.2l-0.8-2.3l1.5-1.7      c5.2-5.7,9.8-12.7,13.7-20.7c9.4-19.3,14.9-45.1,14.7-68.9c-0.3-30.4-9.8-49.2-24.7-49.2c-7.2,0-13.6,3.3-18.4,9.6      c-7.4,9.6-11.4,26.5-12,50c-0.3,14.5,0.8,27,1.1,30.5v0.4c0.1,13.1,2,26.9,5.6,41l0.8,2.9l-2.4,1.3c-5,2.7-10.4,4.2-16.1,4.4      c-0.5,0-1,0-1.5,0c-24.4,0-44.5-16.6-59.5-49.3c-1.1-2.5-2.3-5-3.3-7.7l-0.9-2.2l1.4-1.8c6.5-8.2,12.6-17.9,18-28.8      c15.5-31.4,25.6-73.6,26.9-112.9c0.6-18-0.7-33.6-3.9-45.2c-5.4-19.8-15-23.4-20.2-23.7c-8.9-0.6-17.4,3.3-24.5,11.3      c-12.6,14.2-19.6,39.1-23.1,57.6c-4.2,21.6-6.2,46-5.5,66.9c0.4,10.4,2.3,38,12.5,69.8l0.8,2.4l-1.8,1.6      c-12.6,11.5-26.7,17.1-42.1,16.9h-0.1h-0.2c-15.3,0.3-29.5-5.4-42.1-16.9l-1.8-1.6l0.8-2.4c10.2-31.9,12.1-59.5,12.5-69.8      c0.7-21-1.3-45.3-5.5-66.9c-3.6-18.4-10.5-43.4-23.1-57.6c-7.1-8-15.6-11.9-24.5-11.3c-5.3,0.4-14.9,4-20.2,23.7      c-3.1,11.6-4.5,27.3-3.9,45.2c1.3,39.3,11.4,81.4,26.9,112.9c5.4,11,11.5,20.7,18,28.8l1.4,1.8l-0.9,2.2      c-1.1,2.6-2.2,5.2-3.3,7.7c-15.1,32.7-35.1,49.3-59.5,49.3c-0.5,0-1,0-1.5,0c-5.7-0.2-11.2-1.6-16.1-4.4l-2.4-1.3l0.8-2.9      c3.7-14.1,5.6-27.9,5.6-41v-0.4c0.3-3.5,1.4-16,1.1-30.5c-0.5-23.6-4.6-40.4-12-50c-4.8-6.3-11.2-9.6-18.4-9.6      c-14.9,0-24.4,18.9-24.7,49.2c-0.2,23.8,5.2,49.6,14.7,68.9c3.9,8,8.5,15,13.7,20.7l1.5,1.7l-0.8,2.3      c-25.9,72.7-94,135.6-94.7,136.2c-1.6,1.4-2.5,3.4-2.8,5.7c-0.2,2.3,0.3,4.5,1.6,6.3c1.4,2,3.5,3.2,5.8,3.2      C221.3,649.3,222.9,648.6,224.2,647.4z M634.5,376c2-2.6,4.3-3.9,7.3-3.9c4.7,0,9.7,12.1,9.9,32.4c0.2,20.9-4.6,43.5-12.8,60.4      c-1.1,2.2-2.3,4.4-3.4,6.4l-4.1,7l-1.5-8.3c-1.6-8.6-2.4-17-2.4-25.1c0-0.4,0-0.7-0.1-1.1C625.2,424,625.2,388.1,634.5,376z       M543.3,247.2c3.9-4.4,7.9-6.5,12.2-6.5c0.3,0,0.6,0,0.9,0h0.7l0.6,0.4c3.1,2,7.3,11.2,8.6,30.2c1.4,19.1-0.5,43.2-5.1,66.3      c-5.9,29.3-16,56-28.4,75.2l-3.7,5.7l-1.8-6.8c-4.7-17.7-7.6-37-8.2-52.9C517.8,319.7,526.7,265.8,543.3,247.2z M385.8,337.7      c-4.6-23.1-6.5-47.3-5.1-66.3c1.4-19,5.5-28.1,8.6-30.2l0.6-0.4h0.7c4.7-0.3,9,1.8,13.1,6.5c16.6,18.6,25.5,72.5,24.1,111.6      c-0.5,16-3.5,35.2-8.2,52.9l-1.8,6.8l-3.7-5.7C401.7,393.6,391.6,366.9,385.8,337.7z M308.1,464.8c-8.2-16.9-13-39.4-12.8-60.4      c0.2-20.3,5.2-32.4,9.9-32.4c2.9,0,5.3,1.2,7.3,3.9c9.3,12.1,9.3,48,7.2,67.9c0,0.4-0.1,0.7-0.1,1.1c0,8.1-0.8,16.5-2.4,25.1      l-1.5,8.3l-4.1-7C310.4,469.2,309.2,467.1,308.1,464.8z"></path>
				<path class="st5" d="M727.4,650.9c-2,0-3.9-0.8-5.5-2.2c-1.1-1-27.9-25.6-55-62.6c-16-21.9-28.8-43.7-38.1-64.7      c-1.7-3.9-3.4-7.9-4.8-11.8l-0.7-1.8l-1.6,0.8c-6.6,3.3-13.7,5.1-21,5.3c-0.6,0-1.3,0-1.9,0l0,0c-30.5,0-56-20.5-73.9-59.2      c-0.3-0.7-0.7-1.4-1-2.2l-0.9-2l-1.6,1.3c-14.4,11.6-30.6,17.4-48,17.1c-0.4,0-0.7,0-1.1,0c-17.1,0-32.8-5.8-46.9-17.1l-1.6-1.3      l-0.9,2c-0.3,0.7-0.7,1.4-1,2.2c-17.9,38.8-43.4,59.2-73.9,59.2c-0.6,0-1.3,0-1.9,0c-7.3-0.2-14.4-2-21-5.3l-1.6-0.8l-0.7,1.8      c-1.5,3.9-3.1,7.9-4.8,11.8c-9.2,21-22,42.8-38.1,64.7c-27.1,37.1-53.9,61.6-55,62.6c-1.6,1.4-3.5,2.2-5.5,2.2      c-2.7,0-5.2-1.4-6.9-3.8c-1.5-2.1-2.1-4.8-1.9-7.5c0.3-2.7,1.4-5.1,3.3-6.8c0.7-0.6,68.4-63.1,94.3-135.5l0.4-1.2l-0.8-0.9      c-5.3-5.8-10-12.9-14-21.1c-9.6-19.6-15.1-45.7-14.9-69.7c0.3-31.4,10.3-50.8,26.1-50.8c7.6,0,14.4,3.5,19.5,10.2      c7.6,9.9,11.8,27.1,12.3,51.1c0.3,14.6-0.8,27.2-1.1,30.7v0.3c-0.1,13.2-2,27.1-5.7,41.4l-0.4,1.6l1.3,0.7      c4.8,2.6,10,4.1,15.6,4.2c24.5,0.7,44.6-15.6,59.7-48.4c1.1-2.4,2.2-5,3.3-7.6l0.5-1.2l-0.8-1c-6.6-8.3-12.7-18.1-18.2-29.1      c-15.6-31.6-25.8-74.1-27.1-113.6c-0.6-18.1,0.8-34,3.9-45.8c5.6-20.7,15.9-24.5,21.5-24.9c9.3-0.7,18.2,3.4,25.6,11.7      c12.9,14.5,19.9,39.7,23.5,58.4c4.2,21.7,6.2,46.3,5.5,67.4c-0.4,10.5-2.3,38.3-12.6,70.3l-0.4,1.3l1,0.9      c12.3,11.2,26.2,16.8,41.2,16.5h0.2h0.1c15,0.3,28.9-5.3,41.3-16.5l1-0.9l-0.4-1.3c-10.1-32.2-12.1-60-12.4-70.4      c-0.7-21.1,1.3-45.6,5.5-67.4c3.6-18.7,10.6-43.9,23.5-58.4c7.4-8.3,16.3-12.4,25.6-11.7c5.6,0.4,15.9,4.2,21.5,24.9      c3.2,11.8,4.6,27.6,3.9,45.8c-1.3,39.5-11.5,82-27.1,113.6c-5.5,11.1-11.6,20.9-18.2,29.1l-0.8,1l0.5,1.2      c1.1,2.6,2.2,5.1,3.3,7.6c14.8,32.1,34.4,48.4,58.3,48.4c0.5,0,1,0,1.5,0c5.5-0.2,10.7-1.6,15.5-4.2l1.3-0.7l-0.4-1.6      c-3.7-14.3-5.6-28.2-5.7-41.4v-0.3c-0.3-3.4-1.5-16-1.1-30.7c0.5-24,4.7-41.1,12.3-51.1c5.1-6.7,11.9-10.2,19.5-10.2      c15.8,0,25.8,19.5,26.1,50.8c0.3,24.1-5.3,50.1-14.9,69.7c-4,8.2-8.7,15.3-14,21.1l-0.8,0.9l0.4,1.2      c25.8,72.5,93.6,134.9,94.3,135.5c1.9,1.7,3,4.1,3.3,6.8s-0.4,5.4-1.9,7.5C732.7,649.5,730.2,650.9,727.4,650.9z M624.8,503.4      l1.8,4.8c1.4,3.8,3.1,7.7,4.8,11.6c9.1,20.8,21.8,42.3,37.7,64.1c26.9,36.8,53.5,61.2,54.6,62.2s2.4,1.5,3.7,1.5      c1.8,0,3.6-0.9,4.7-2.6c1-1.4,1.4-3.2,1.3-5.1c-0.2-1.8-1-3.5-2.2-4.6c-0.7-0.6-69-63.5-95.1-136.9l-1.2-3.3l2.2-2.5      c5.1-5.6,9.6-12.5,13.5-20.4c9.3-19.1,14.8-44.6,14.5-68.1c-0.3-29.4-9.2-47.6-23.3-47.6c-6.8,0-12.8,3.1-17.4,9.1      c-7.2,9.3-11.1,25.8-11.6,49c-0.3,14.4,0.8,26.8,1.1,30.3v0.5c0.1,13,1.9,26.7,5.6,40.6l1.1,4.3l-3.5,1.9      c-5.2,2.8-10.8,4.4-16.7,4.5c-0.5,0-1,0-1.5,0c-25,0-45.4-16.9-60.8-50.1c-1.1-2.5-2.3-5.1-3.3-7.7l-1.3-3.2l2.1-2.6      c6.5-8.1,12.5-17.7,17.8-28.5c15.4-31.2,25.4-73.1,26.7-112.1c0.6-17.8-0.7-33.2-3.8-44.7c-5.1-18.8-14.1-22.2-19-22.6      c-8.5-0.6-16.6,3.1-23.4,10.8c-12.4,13.9-19.2,38.5-22.7,56.8c-4.2,21.4-6.1,45.7-5.4,66.5c0.3,10.3,2.3,37.7,12.4,69.3l1.1,3.5      l-2.6,2.4c-12.9,11.7-27.3,17.5-43.1,17.2h-0.1h-0.1c-15.7,0.3-30.2-5.5-43-17.2l-2.6-2.4l1.1-3.5c10.1-31.6,12-59,12.4-69.3      c0.7-20.8-1.3-45.1-5.4-66.5c-3.5-18.2-10.3-42.9-22.7-56.8c-6.9-7.7-15-11.4-23.4-10.8c-4.9,0.4-13.9,3.8-19,22.6      c-3.1,11.5-4.4,26.9-3.8,44.7c1.3,39,11.3,80.9,26.7,112.1c5.4,10.9,11.4,20.5,17.8,28.5l2.1,2.6l-1.3,3.2      c-1.1,2.6-2.2,5.2-3.3,7.7c-15.8,34.1-36.8,51-62.4,50.3c-5.9-0.2-11.5-1.7-16.7-4.5l-3.5-1.9l1.1-4.3c3.6-14,5.5-27.6,5.6-40.5      v-0.5c0.3-3.5,1.4-16,1.1-30.4c-0.5-23.2-4.4-39.6-11.6-49c-4.6-5.9-10.6-9.1-17.4-9.1c-14.1,0-23,18.2-23.3,47.6      c-0.2,23.5,5.2,49,14.5,68.1c3.9,7.9,8.4,14.8,13.5,20.4l2.2,2.5l-1.2,3.3c-26.1,73.2-94.4,136.2-95.1,136.9      c-1.3,1.1-2.1,2.8-2.2,4.6c-0.2,1.8,0.3,3.6,1.3,5.1c1.1,1.7,2.9,2.6,4.7,2.6c1.4,0,2.7-0.5,3.7-1.5l0.9,1.3l-0.9-1.3      c1.1-1,27.6-25.3,54.6-62.2c15.9-21.7,28.6-43.3,37.7-64.1c1.7-3.9,3.3-7.8,4.8-11.6l1.8-4.8l4.2,2.1c6.3,3.2,13,4.9,19.9,5.1      c0.6,0,1.2,0,1.8,0c29.4,0,54-19.8,71.4-57.5c0.3-0.7,0.6-1.4,1-2.1l2.4-5.3l4.3,3.5c13.6,11,28.8,16.5,45.3,16.5      c0.3,0,0.7,0,1,0h0.1c0.4,0,0.7,0,1.1,0c16.4,0,31.6-5.6,45.2-16.5l4.3-3.5l2.4,5.3c0.3,0.7,0.6,1.4,1,2.1      c17.4,37.6,42,57.5,71.4,57.5l0,0c0.6,0,1.2,0,1.8,0c7-0.2,13.7-1.9,19.9-5.1L624.8,503.4z M630.6,482.3l-2.2-12      c-1.6-8.7-2.4-17.2-2.4-25.4c0-0.3,0-0.6,0-0.9c-2.2-20.1-2.1-56.7,7.5-69.2l0,0c2.3-3,5-4.4,8.4-4.4c6.3,0,11.1,14.3,11.3,34      c0.2,21.2-4.6,44.1-13,61.2c-1.1,2.3-2.3,4.5-3.5,6.5L630.6,482.3z M641.8,373.7c-2.5,0-4.5,1-6.2,3.3l0,0      c-8.5,11.1-9.1,45.6-6.8,66.6c0,0.4,0.1,0.8,0.1,1.3c0,8,0.8,16.3,2.3,24.7l0.8,4.5l2.3-3.8c1.2-2,2.3-4.1,3.4-6.3      c8.1-16.6,12.8-38.9,12.6-59.5C650,384.7,645.1,373.7,641.8,373.7z M316.4,482.3l-6-10.1c-1.2-2-2.4-4.2-3.5-6.5l0,0      c-8.3-17.1-13.2-40-13-61.2c0.2-19.7,5-34,11.3-34c3.3,0,6.1,1.4,8.3,4.4c9.6,12.5,9.7,49,7.5,69.2c0,0.3,0,0.6,0,0.9      c0,8.2-0.8,16.7-2.4,25.4L316.4,482.3z M309.4,464c1.1,2.2,2.2,4.3,3.4,6.3l2.3,3.8l0.8-4.5c1.5-8.4,2.3-16.8,2.3-24.7      c0-0.4,0-0.8,0.1-1.3c2.3-21,1.7-55.6-6.8-66.6c-1.8-2.3-3.7-3.3-6.2-3.3c-3.3,0-8.2,11-8.4,30.8      C296.6,425.2,301.3,447.4,309.4,464L309.4,464z M528.6,422.2l-2.6-9.9c-4.7-17.8-7.7-37.2-8.2-53.3      c-1.3-39.5,7.7-93.9,24.6-112.9l0,0c4.2-4.7,8.5-7,13.2-7c0.4,0,0.7,0,1,0l1.1,0.1l0.9,0.6c3.6,2.3,7.9,11.8,9.3,31.4      c1.4,19.2-0.5,43.6-5.2,66.8c-5.9,29.5-16.1,56.4-28.7,75.8L528.6,422.2z M555.5,242.3c-3.9,0-7.6,2-11.2,6      c-16.3,18.3-25,71.6-23.7,110.4c0.5,15.8,3.5,35,8.1,52.5l1,3.7l2-3.1c12.3-19,22.3-45.5,28.2-74.6c4.6-22.9,6.5-46.9,5.1-65.8      c-1.4-19.6-5.6-27.4-7.9-28.9l-0.3-0.2h-0.4C556,242.3,555.8,242.3,555.5,242.3z M418.4,422.2l-5.4-8.3      c-12.6-19.4-22.7-46.3-28.7-75.8l0,0c-4.7-23.3-6.6-47.6-5.2-66.8c1.4-19.6,5.8-29.1,9.3-31.4l0.9-0.6l1.1-0.1      c5.1-0.3,9.7,1.9,14.2,6.9c16.9,19,25.9,73.3,24.6,112.9c-0.5,16.1-3.5,35.5-8.2,53.3L418.4,422.2z M390.3,242.4l-0.3,0.2      c-2.3,1.5-6.5,9.2-7.9,28.9c-1.4,18.9,0.5,42.9,5.1,65.8l0,0c5.8,29,15.8,55.5,28.2,74.6l2,3.1l1-3.7      c4.6-17.5,7.6-36.7,8.1-52.5c1.3-38.8-7.4-92.1-23.7-110.4c-3.9-4.3-7.8-6.3-12-6L390.3,242.4z"></path>
			</g>
		</g>
		<g>
			<g>
				<path class="st4" d="M150.2,319.1c-1.7,1.7-3.5,3.2-5.4,4.4c-1.9,1.2-4.2,2.5-7.1,4c-3.1,1.7-5.6,3.1-7.4,4.3      c-1.9,1.2-3.4,2.7-4.6,4.3c-0.4,2.1-1.1,4.1-1.9,5.9c-2.3,5.2-5.5,9.1-9.6,11.7s-8.7,3.8-14,3.7s-10.8-1.5-16.6-4.1      c-5.9-2.7-10.7-6.1-14.2-10.4s-5.6-8.9-6.3-13.9c-0.7-5,0.1-10,2.3-15c3.6-8.1,8.9-13.1,15.9-15c7-2,15-0.9,24,3.1      c6.7,3,11.8,7,15.4,11.9s5.5,10.3,5.6,16c1.3-2.2,2.8-4.2,4.7-6s4.4-3.7,7.4-5.9c3.2-2.5,5.7-4.5,7.4-6.2c1.7-1.6,3.1-3.5,4-5.6      c0.4-0.9,0.7-1.7,0.9-2.5l3.8,0.6c0.6,1.4,0.8,2.8,0.7,4.3s-0.4,3-1.1,4.4C153.2,315.3,151.9,317.3,150.2,319.1z M118.7,324.5      c-3.2-4.9-9-9.3-17.5-13.1c-7.8-3.5-14.5-4.8-20.1-4s-9.6,3.8-11.8,8.9c-2.2,5-1.9,10,1.2,14.8c3,4.9,8.8,9.2,17.3,13      c7.8,3.5,14.5,4.8,20.3,4s9.8-3.7,12.1-8.8C122.4,334.3,121.9,329.4,118.7,324.5z"></path>
				<path class="st4" d="M170.9,251.7c-5.9,0-12.4-3.1-19.4-9.4l-23.3-20.7l-4.8,3.8l-3.2-2.8l15.1-16.9l3.2,2.8l-4,6.1l23.9,21.3      c5.8,5.1,10.8,7.8,15.2,8s8.3-1.6,11.7-5.5c3.4-3.8,4.6-7.9,3.7-12.3c-1-4.3-4.1-8.8-9.2-13.4L155.5,191l-5.6,4.6l-3.2-2.8      l13.2-14.8l3.2,2.8l-3.4,5.3l24.1,21.4c6.6,5.9,10.1,11.8,10.6,17.9c0.5,6-1.6,11.7-6.3,16.9      C182.5,248.6,176.8,251.7,170.9,251.7z"></path>
				<path class="st4" d="M230.1,129l-6.5,2.7l-2.2-3.6l37-22.5l7.9,10.6l-4.1,2.5l-6.4-5.8l-18.3,10.5l12.4,20.5l12-7.6l-2.6-6.6      l4-2.4l10.1,16.7l-4,2.4l-4.8-5.6l-12.3,7.2l13.1,21.7l20-13.2l-1.7-11.5l5.1-1.3l5.6,13.9l-40.3,24.5l-2.2-3.6l5.6-4.4      L230.1,129z M233.5,112.2l3-17l8.1,0.1c-0.3,2.5-1.1,5.5-2.4,8.8c-1.3,3.3-2.5,6-3.8,8L233.5,112.2z"></path>
				<path class="st4" d="M432.6,57.7l-6.7-0.8l-0.2-4.2l23.1-0.8l0.2,4.2l-7.3,1.3l0.8,22.9l29.9-1.1l-0.8-22.9l-6.9-0.8l-0.2-4.2      l22.8-0.8l0.2,4.2l-6.7,1.3l1.9,52.8l6.7,0.6l0.1,4.2l-22.8,0.8l-0.1-4.2l6.9-1.1l-0.9-24.7l-29.9,1.1l0.9,24.7l7.4,0.6l0.1,4.2      l-23.4,0.8l-0.1-4.2l6.8-1.1L432.6,57.7z"></path>
				<path class="st4" d="M589.6,66.2l9,2.5l3.9,62.1l4.8,2.2l-1.1,4l-21.6-6.1l1.1-4l7,1.1l-0.4-13.2l-23.9-6.7l-7.3,11l6.8,2.8      l-1.1,4l-19.4-5.5l1.1-4l5.3,0.6L589.6,66.2z M591.1,80.8V73l-4,6.8l-15.7,23.9l20.8,5.9L591.1,80.8z"></path>
				<path class="st4" d="M670.8,165.9c-2.2-4.6-3-9.6-2.3-14.9c0.7-5.3,2.9-10.8,6.4-16.3c3.4-5.3,7.6-9.3,12.4-12      c4.9-2.7,10-3.9,15.4-3.6c5.4,0.2,10.5,1.9,15.3,5c3.7,2.4,7.7,5.8,12.1,10.2l2.1,1.9l-9,12.4l-4.8-3.1l4-10.2      c-0.3-1-1.1-2.2-2.5-3.7s-3.3-3-5.7-4.5c-3.1-2-6.3-2.8-9.8-2.6c-3.5,0.2-7,1.6-10.5,4.1c-3.5,2.5-6.8,6.1-9.8,10.9      c-2.9,4.5-4.9,8.9-6.1,13.4c-1.2,4.4-1.2,8.5-0.2,12.3c1,3.7,3.4,6.7,6.9,9c2.5,1.6,4.6,2.7,6.2,3.1c1.6,0.4,3.2,0.6,4.7,0.4      l7.5-5.1l4.1,3.5l-8.2,9.1c-1-0.6-2.7-1.2-5.1-1.8c-2.1-0.6-4-1.2-5.8-1.9s-3.9-1.8-6.3-3.4      C676.8,174.5,673.1,170.5,670.8,165.9z"></path>
				<path class="st4" d="M795.1,196.5l-3.8-5.9l3.2-2.8l28.3,32.7l-9.2,9.5l-3.2-3.7l4.6-7.3l-13.4-16.3l-18.1,15.7L793,229l6.1-3.7      l3.1,3.5l-14.8,12.8l-3.1-3.5l4.8-5.7l-9.1-10.9l-19.2,16.6l16.3,17.6l11-3.6l2.1,4.8l-12.8,7.8L746.6,229l3.2-2.7l5.3,4.8      L795.1,196.5z"></path>
				<path class="st4" d="M815.7,316.3l3.6,6.1l48.3-21.5l-1.7-6.5l3.8-1.7l4.5,10.2c0.6,1.4,1.6,3.4,2.9,5.8c1.4,2.5,2.4,4.5,3,5.9      c3.4,7.6,4.6,13.6,3.5,17.9c-1,4.3-4.2,7.7-9.5,10c-3.7,1.6-7.5,2.1-11.5,1.4s-7.3-2.6-10-5.7c-0.1,2-1,4.3-2.5,6.6      c-1.5,2.4-3.7,5.5-6.6,9.2c-2.2,2.9-3.8,5.1-4.7,6.5c-1,1.5-1.4,2.6-1.2,3.4l0.6,3.4l-3.8,1.7l-4.8-10.7c-0.4-0.8,0.1-2.2,1.4-4      c1.3-1.8,3.5-4.4,6.4-7.8c3.3-3.7,5.8-6.7,7.6-9.2c1.8-2.4,2.7-4.5,2.8-6.1c-2.5-5.5-3.9-8.8-4.3-9.9l-20.8,9.3l2.6,8l-3.8,1.7      l-10-22.4L815.7,316.3z M858.8,335.3c3,0.9,6.7,0.5,11-1.4c3.8-1.7,6.2-3.9,7.4-6.8c1.1-2.8,0.6-6.6-1.5-11.4      c-0.7-1.7-1.6-3.3-2.5-4.8c-0.6-1-0.9-1.6-1.1-2L848,319.6c0.3,0.8,1,2.4,2.1,4.9l2,4.4C853.5,332.2,855.8,334.3,858.8,335.3z"></path>
			</g>
		</g>
	</g>
	<g>
		<g>
			<g>
				<path class="st6" d="M840.1,842.9c2.9-0.7,7.2-1,11.3-1c6.2,0,10.3,1.1,13.1,3.8c2.3,2,3.6,5.1,3.6,8.6c0,6-3.8,10-8.5,11.6v0.2      c3.4,1.1,5.5,4.4,6.7,9.1c1.5,6.4,2.6,10.8,3.4,12.4h-6c-0.8-1.3-1.8-5.2-3.1-10.8c-1.3-6.2-3.8-8.6-9.1-8.8h-5.5v19.6h-5.7      V842.9z M845.9,863.5h6c6.2,0,10.3-3.4,10.3-8.6c0-5.9-4.2-8.5-10.4-8.5c-2.8,0-4.9,0.3-5.7,0.5v16.6H845.9z"></path>
			</g>
		</g>
		<g>
			<path class="st6" d="M852.5,906.1c-22.7,0-41.3-18.4-41.3-41.3c0-22.8,18.4-41.3,41.3-41.3s41.3,18.4,41.3,41.3     C893.8,887.6,875.1,906.1,852.5,906.1z M852.5,829.5c-19.4,0-35.3,15.8-35.3,35.3S833,900,852.5,900c19.4,0,35.3-15.8,35.3-35.3     S871.9,829.5,852.5,829.5z"></path>
		</g>
	</g>
</g>
</svg>
